[Header]
FileType HTR
DataType HTRS
FileVersion 1
NumSegments 22
NumFrames 8
DataFrameRate 24
EulerRotationOrder ZYX
CalibrationUnits mm
RotationUnits Degrees
GlobalAxisofGravity Y
BoneLengthAxis Y
ScaleFactor 1.0
[SegmentNames&Hierarchy]
reference	GLOBAL
Hips	reference
Spine	Hips
Spine1	Spine
Neck	Spine1
Head	Neck
LeftShoulder	Spine1
LeftArm	LeftShoulder
LeftForeArm	LeftArm
LeftHand	LeftForeArm
RightShoulder	Spine1
RightArm	RightShoulder
RightForeArm	RightArm
RightHand	RightForeArm
LeftUpLeg	Hips
LeftLeg	LeftUpLeg
LeftFoot	LeftLeg
LeftToeBase	LeftFoot
RightUpLeg	Hips
RightLeg	RightUpLeg
RightFoot	RightLeg
RightToeBase	RightFoot
[BasePosition]
reference	0	0	0	0	0	0	1
Hips	0	0	0	0	0	0	1
Spine	0	0	0	0	-0	90	1
Spine1	0	0	0	0	0	0	1
Neck	0	0	0	-7.352430803	-7.352430803	90	1
Head	0	0	0	0	-0	90	1
LeftShoulder	0	0	0	0	0	0	1
LeftArm	0	0	0	0	0	0	1
LeftForeArm	0	0	0	0	0	0	1
LeftHand	0	0	0	0	0	0	1
RightShoulder	0	0	0	0	-0	180	1
RightArm	0	0	0	0	-0	180	1
RightForeArm	0	0	0	0	-0	180	1
RightHand	0	0	0	0	-0	180	1
LeftUpLeg	0	0	0	0	-0	-90	1
LeftLeg	0	0	0	0	-0	-90	1
LeftFoot	0	0	0	66.57150701	-66.57150701	-90	1
LeftToeBase	0	0	0	0	-90	0	1
RightUpLeg	0	0	0	0	-0	-90	1
RightLeg	0	0	0	0	-0	-90	1
RightFoot	0	0	0	66.57150701	-66.57150701	-90	1
RightToeBase	0	0	0	0	-90	0	1
[reference]
19	0	0	0	0	-0	0	1.0
20	0	0	0	0	-0	0	1.0
21	0	0	0	0	-0	0	1.0
22	0	0	0	0	-0	0	1.0
23	0	0	0	0	-0	0	1.0
24	0	0	0	0	-0	0	1.0
25	0	0	0	0	-0	0	1.0
26	0	0	0	0	-0	0	1.0
[Hips]
19	8.977474213	8.733859062	1.007475853	10.65873718	-109.4570007	-5.065322876	1.0
20	8.822874069	8.718539238	0.9879812598	7.77900219	-111.5167542	-4.312462807	1.0
21	8.653327942	8.702791214	0.9499887228	7.057067871	-113.5411835	-4.696882248	1.0
22	8.465370178	8.686416626	0.910099864	5.88951683	-115.9632568	-4.336854935	1.0
23	8.227018356	8.630532265	0.8663861752	4.824406147	-117.6543655	-4.334451675	1.0
24	7.931183815	8.562722206	0.8180543184	3.02263236	-118.3772049	-4.043767929	1.0
25	7.617549896	8.478329659	0.776497066	2.022277832	-118.8677063	-4.154495239	1.0
26	7.287614822	8.377353668	0.734380424	1.781353831	-119.1652069	-4.763197899	1.0
[Spine]
19	0	0.7478299737	0	-12.92197418	1.145694852	-90.96337891	1.0
20	0	0.7478299737	0	-11.67670727	2.053705215	-90.69244385	1.0
21	0	0.7478299737	0	-11.07399845	2.687372923	-90.25950623	1.0
22	0	0.7478299737	0	-11.09883308	3.254932642	-89.56453705	1.0
23	0	0.7478299737	0	-10.92840672	3.075073957	-88.95569611	1.0
24	0	0.7478299737	0	-11.29028797	2.517295837	-88.2739563	1.0
25	0	0.7478299737	0	-11.59955215	1.932307839	-88.00933075	1.0
26	0	0.7478299737	0	-12.00120354	1.799479246	-88.0161972	1.0
[Spine1]
19	0	2.049309969	0	7.882185459	0.5583488345	-2.416496992	1.0
20	0	2.049309969	0	8.003673553	0.8986352086	-2.427646875	1.0
21	0	2.049309969	0	8.498674393	1.118615746	-2.908253431	1.0
22	0	2.049309969	0	8.796229362	1.289847612	-2.739518404	1.0
23	0	2.049309969	0	9.090476036	1.252684951	-2.358915567	1.0
24	0	2.049309969	0	10.45696449	1.012193084	-2.501204252	1.0
25	0	2.049309969	0	11.01568031	0.7739902735	-2.072759628	1.0
26	0	2.049309969	0	11.58354092	0.6918795705	-1.882019639	1.0
[Neck]
19	0	2.231709957	0	2.747849703	9.344932556	-86.88468933	1.0
20	0	2.231709957	0	3.415623188	9.720716476	-87.18404388	1.0
21	0	2.231709957	0	4.06850481	10.42141533	-87.90084839	1.0
22	0	2.231709957	0	4.470617771	11.28795433	-88.93830109	1.0
23	0	2.231709957	0	5.246119499	12.23767662	-89.3922348	1.0
24	0	2.231709957	0	6.176876545	13.19221973	-89.84664917	1.0
25	0	2.231709957	0	7.008895874	13.90216923	-89.9088974	1.0
26	0	2.231709957	0	7.569122314	14.23607635	-89.74523163	1.0
[Head]
19	0	1.413589954	0.1823999882	-11.35931206	2.351599216	-92.61042786	1.0
20	0	1.413589954	0.1823999882	-11.30299282	2.723309517	-92.76245117	1.0
21	0	1.413589954	0.1823999882	-11.63598537	3.364239693	-92.98468018	1.0
22	0	1.413589954	0.1823999882	-12.01321983	4.125519276	-93.27784729	1.0
23	0	1.413589954	0.1823999882	-12.41102219	5.031142235	-94.18125153	1.0
24	0	1.413589954	0.1823999882	-12.81099701	5.921751976	-94.79679871	1.0
25	0	1.413589954	0.1823999882	-12.87721729	6.623567104	-95.41546631	1.0
26	0	1.413589954	0.1823999882	-13.66823196	6.9240098	-95.39821625	1.0
[LeftShoulder]
19	0.3649300039	1.825889945	-0.04271000251	-10.18334293	-7.660843372	1.909715414	1.0
20	0.3649300039	1.825889945	-0.04271000251	-10.18585777	-7.573410034	1.695060253	1.0
21	0.3649300039	1.825889945	-0.04271000251	-9.941157341	-7.094881058	1.592683196	1.0
22	0.3649300039	1.825889945	-0.04271000251	-9.658109665	-6.646798134	1.378403783	1.0
23	0.3649300039	1.825889945	-0.04271000251	-9.526887894	-6.484222412	1.319025636	1.0
24	0.3649300039	1.825889945	-0.04271000251	-9.414657593	-6.29457283	1.574136734	1.0
25	0.3649300039	1.825889945	-0.04271000251	-10.01659012	-5.884771347	1.97720623	1.0
26	0.3649300039	1.825889945	-0.04271000251	-9.972762108	-5.938829899	2.26950407	1.0
[LeftArm]
19	1.24003005	0	0	40.22385788	7.885032177	-79.84080505	1.0
20	1.24003005	0	0	38.95552063	8.436145782	-79.02384949	1.0
21	1.24003005	0	0	37.26745605	8.824858665	-78.55037689	1.0
22	1.24003005	0	0	35.41815186	9.313862801	-78.41725922	1.0
23	1.24003005	0	0	33.74501801	10.24715424	-78.89170074	1.0
24	1.24003005	0	0	32.01662827	11.08106613	-79.39858246	1.0
25	1.24003005	0	0	30.14711571	12.37203121	-79.78349304	1.0
26	1.24003005	0	0	28.24343872	12.73552322	-79.74447632	1.0
[LeftForeArm]
19	2.847419977	0	0	-12.15422821	-22.41802216	0.887925446	1.0
20	2.847419977	0	0	-12.08729744	-23.71531296	1.454057217	1.0
21	2.847419977	0	0	-11.92261314	-24.989851	1.935341954	1.0
22	2.847419977	0	0	-12.04813385	-25.82172012	2.204657555	1.0
23	2.847419977	0	0	-12.32115078	-25.92715073	2.621125698	1.0
24	2.847419977	0	0	-12.59213734	-26.16262436	2.773892641	1.0
25	2.847419977	0	0	-12.12144947	-26.59147453	1.678415775	1.0
26	2.847419977	0	0	-11.54578686	-27.4323101	1.044469714	1.0
[LeftHand]
19	2.258270025	0	0	-12.41992474	-7.071965218	7.145499706	1.0
20	2.258270025	0	0	-12.34717941	-8.764410973	7.374138832	1.0
21	2.258270025	0	0	-11.99339485	-8.702990532	6.569351196	1.0
22	2.258270025	0	0	-12.01920986	-8.980333328	6.067382336	1.0
23	2.258270025	0	0	-12.17985249	-9.414559364	5.615376472	1.0
24	2.258270025	0	0	-12.41621494	-9.405670166	5.699680805	1.0
25	2.258270025	0	0	-12.19739723	-9.943962097	5.435076714	1.0
26	2.258270025	0	0	-11.7682457	-9.640695572	5.666192532	1.0
[RightShoulder]
19	-0.3646599948	1.825889945	-0.04271000251	-7.74733305	7.572206497	179.7567902	1.0
20	-0.3646599948	1.825889945	-0.04271000251	-7.366838455	7.926487923	179.2564392	1.0
21	-0.3646599948	1.825889945	-0.04271000251	-6.94742918	8.470076561	178.6713409	1.0
22	-0.3646599948	1.825889945	-0.04271000251	-6.991858006	8.828377724	178.1532593	1.0
23	-0.3646599948	1.825889945	-0.04271000251	-6.611742973	8.994125366	178.357132	1.0
24	-0.3646599948	1.825889945	-0.04271000251	-6.195756912	9.052872658	178.4716797	1.0
25	-0.3646599948	1.825889945	-0.04271000251	-6.748552322	8.744984627	178.2751007	1.0
26	-0.3646599948	1.825889945	-0.04271000251	-6.659599781	8.813661575	178.2278748	1.0
[RightArm]
19	-1.24003005	0	0	44.50139999	-6.053437233	-97.94998169	1.0
20	-1.24003005	0	0	43.67045975	-6.154648304	-97.35688782	1.0
21	-1.24003005	0	0	42.89744186	-6.061217308	-97.14427185	1.0
22	-1.24003005	0	0	42.29522705	-6.258131981	-97.33348083	1.0
23	-1.24003005	0	0	41.32238388	-6.205089569	-98.23171234	1.0
24	-1.24003005	0	0	38.59950256	-6.13245821	-99.92077637	1.0
25	-1.24003005	0	0	36.74256516	-7.097148895	-100.9472961	1.0
26	-1.24003005	0	0	34.92667389	-7.453671455	-101.7747955	1.0
[RightForeArm]
19	-2.847419977	0	0	-1.180947304	15.75369358	177.4668274	1.0
20	-2.847419977	0	0	-1.052764654	15.89717674	177.6533051	1.0
21	-2.847419977	0	0	-0.5399160385	16.38414955	178.0139771	1.0
22	-2.847419977	0	0	-0.2988725603	16.94387817	178.0367737	1.0
23	-2.847419977	0	0	0.1460805684	17.49576187	178.0934906	1.0
24	-2.847419977	0	0	1.57917726	19.06926727	179.716629	1.0
25	-2.847419977	0	0	2.815788507	20.07448006	180.7354126	1.0
26	-2.847419977	0	0	2.802425385	21.40998268	181.1181183	1.0
[RightHand]
19	-2.258270025	0	0	-1.017981291	6.178759575	176.5430908	1.0
20	-2.258270025	0	0	-0.8890731335	6.360434055	177.0453949	1.0
21	-2.258270025	0	0	-0.4102408588	6.766866684	177.3610992	1.0
22	-2.258270025	0	0	-0.1730962247	6.908932686	177.2464905	1.0
23	-2.258270025	0	0	0.2425930947	7.2368536	176.9406128	1.0
24	-2.258270025	0	0	1.387789011	6.907345295	176.0382233	1.0
25	-2.258270025	0	0	2.40528059	7.166897774	175.5266876	1.0
26	-2.258270025	0	0	2.275179386	7.141375542	174.9449921	1.0
[LeftUpLeg]
19	0.9119900465	0	0	-30.54888535	-6.88559866	97.53839874	1.0
20	0.9119900465	0	0	-30.26368523	-6.537393093	99.24988556	1.0
21	0.9119900465	0	0	-29.17212677	-7.167711735	100.4623108	1.0
22	0.9119900465	0	0	-27.99814987	-8.149030685	102.2953873	1.0
23	0.9119900465	0	0	-25.63556099	-9.628091812	103.3304138	1.0
24	0.9119900465	0	0	-23.50316048	-9.051671982	102.921875	1.0
25	0.9119900465	0	0	-22.25592232	-6.677810669	101.8937454	1.0
26	0.9119900465	0	0	-21.88755417	-3.01574707	100.1175232	1.0
[LeftLeg]
19	0	-4.371409893	0	46.53357697	10.17180538	81.08932495	1.0
20	0	-4.371409893	0	41.44419098	10.44104767	80.20760345	1.0
21	0	-4.371409893	0	33.06510544	11.15331459	81.52183533	1.0
22	0	-4.371409893	0	23.54696274	11.8982563	82.69702911	1.0
23	0	-4.371409893	0	14.42746258	13.65449905	84.07118225	1.0
24	0	-4.371409893	0	8.243819237	14.6221962	86.27420044	1.0
25	0	-4.371409893	0	4.873518944	12.36753559	86.77137756	1.0
26	0	-4.371409893	0	3.540286303	12.01870537	87.01344299	1.0
[LeftFoot]
19	0	-3.918009996	0	-72.20147705	104.8718109	-28.34176636	1.0
20	0	-3.918009996	0	-65.73622131	104.2135391	-23.40645027	1.0
21	0	-3.918009996	0	-62.4621582	101.6592941	-24.13238525	1.0
22	0	-3.918009996	0	-65.61862183	101.6716461	-33.11462402	1.0
23	0	-3.918009996	0	-65.47062683	101.4905167	-39.13541412	1.0
24	0	-3.918009996	0	-68.44239807	100.0971375	-46.38394928	1.0
25	0	-3.918009996	0	-60.53820801	100.4879456	-39.34954834	1.0
26	0	-3.918009996	0	-45.58264923	97.92539978	-23.53666115	1.0
[LeftToeBase]
19	0	-0.5927900076	1.367989898	0	0	0	1.0
20	0	-0.5927900076	1.367989898	0	0	0	1.0
21	0	-0.5927900076	1.367989898	0	0	0	1.0
22	0	-0.5927900076	1.367989898	0	0	0	1.0
23	0	-0.5927900076	1.367989898	0	0	0	1.0
24	0	-0.5927900076	1.367989898	0	0	0	1.0
25	0	-0.5927900076	1.367989898	0	0	0	1.0
26	0	-0.5927900076	1.367989898	0	0	0	1.0
[RightUpLeg]
19	-0.9119900465	0	0	3.93356657	-12.03734016	92.6099472	1.0
20	-0.9119900465	0	0	7.318692207	-12.33652973	91.86806488	1.0
21	-0.9119900465	0	0	9.140446663	-12.64674282	91.03974915	1.0
22	-0.9119900465	0	0	10.49751377	-12.92534828	90.19424438	1.0
23	-0.9119900465	0	0	13.12855816	-13.23534012	88.70680237	1.0
24	-0.9119900465	0	0	16.20428467	-13.51790619	87.16569519	1.0
25	-0.9119900465	0	0	18.61856461	-14.53103352	85.56061554	1.0
26	-0.9119900465	0	0	20.47185135	-16.0680294	83.58110046	1.0
[RightLeg]
19	0	-4.371409893	0	3.082166433	0.7805007696	91.01637268	1.0
20	0	-4.371409893	0	2.72238183	0.630964756	90.10858917	1.0
21	0	-4.371409893	0	4.307356358	1.817367673	89.08235931	1.0
22	0	-4.371409893	0	5.3078866	3.079468489	88.42306519	1.0
23	0	-4.371409893	0	5.99614048	3.666447163	87.93215942	1.0
24	0	-4.371409893	0	6.215456486	4.733290672	87.69274139	1.0
25	0	-4.371409893	0	8.004220963	5.148511887	86.73025513	1.0
26	0	-4.371409893	0	10.46493149	3.92431736	85.49746704	1.0
[RightFoot]
19	0	-3.918009996	0	14.84656048	67.9559021	56.57165146	1.0
20	0	-3.918009996	0	57.38254547	60.71847153	99.30402374	1.0
21	0	-3.918009996	0	56.31887817	57.93867874	100.596344	1.0
22	0	-3.918009996	0	56.70807648	58.5059433	102.6357269	1.0
23	0	-3.918009996	0	57.40299988	57.6601944	105.3431473	1.0
24	0	-3.918009996	0	56.96362305	58.81140137	105.7281799	1.0
25	0	-3.918009996	0	59.18434906	56.09946442	111.6046143	1.0
26	0	-3.918009996	0	57.43579102	58.60034943	109.8087921	1.0
[RightToeBase]
19	0	-0.5927900076	1.367989898	0	0	0	1.0
20	0	-0.5927900076	1.367989898	0	0	0	1.0
21	0	-0.5927900076	1.367989898	0	0	0	1.0
22	0	-0.5927900076	1.367989898	0	0	0	1.0
23	0	-0.5927900076	1.367989898	0	0	0	1.0
24	0	-0.5927900076	1.367989898	0	0	0	1.0
25	0	-0.5927900076	1.367989898	0	0	0	1.0
26	0	-0.5927900076	1.367989898	0	0	0	1.0
[EndOfFile]
